<svg xmlns="http://www.w3.org/2000/svg" width="17" height="16" viewBox="0 0 17 16">
  <metadata><?xpacket begin="﻿" id="W5M0MpCehiHzreSzNTczkc9d"?>
<x:xmpmeta xmlns:x="adobe:ns:meta/" x:xmptk="Adobe XMP Core 5.6-c138 79.159824, 2016/09/14-01:09:01        ">
   <rdf:RDF xmlns:rdf="http://www.w3.org/1999/02/22-rdf-syntax-ns#">
      <rdf:Description rdf:about=""/>
   </rdf:RDF>
</x:xmpmeta>
                                                                                                    
                                                                                                    
                                                                                                    
                                                                                                    
                                                                                                    
                                                                                                    
                                                                                                    
                                                                                                    
                                                                                                    
                                                                                                    
                                                                                                    
                                                                                                    
                                                                                                    
                                                                                                    
                                                                                                    
                                                                                                    
                                                                                                    
                                                                                                    
                                                                                                    
                                                                                                    
                           
<?xpacket end="w"?></metadata>
<defs>
    <style>
      .cls-1 {
        fill: #ffc800;
        fill-rule: evenodd;
      }
    </style>
  </defs>
  <path class="cls-1" d="M1074,49a0.574,0.574,0,0,0,.59.562h11.15l-2.17,2.086a0.544,0.544,0,0,0,0,.795,0.6,0.6,0,0,0,.82,0l3.17-3.044a0.544,0.544,0,0,0,0-.795l-3.17-3.044a0.606,0.606,0,0,0-.83,0,0.561,0.561,0,0,0,0,.795l2.18,2.086h-11.15A0.571,0.571,0,0,0,1074,49Zm13.5,8a3.436,3.436,0,0,0,3.5-3.362V44.362A3.436,3.436,0,0,0,1087.5,41h-9.66a3.436,3.436,0,0,0-3.5,3.362v1.906a0.586,0.586,0,0,0,1.17,0V44.362a2.287,2.287,0,0,1,2.33-2.24h9.66a2.285,2.285,0,0,1,2.33,2.24v9.277a2.287,2.287,0,0,1-2.33,2.24h-9.66a2.285,2.285,0,0,1-2.33-2.24V51.755a0.585,0.585,0,0,0-1.17,0v1.883a3.436,3.436,0,0,0,3.5,3.362h9.66Z" transform="translate(-1074 -41)"/>
</svg>
