<svg xmlns="http://www.w3.org/2000/svg" width="20" height="15" viewBox="0 0 20 15">
  <metadata><?xpacket begin="﻿" id="W5M0MpCehiHzreSzNTczkc9d"?>
<x:xmpmeta xmlns:x="adobe:ns:meta/" x:xmptk="Adobe XMP Core 5.6-c138 79.159824, 2016/09/14-01:09:01        ">
   <rdf:RDF xmlns:rdf="http://www.w3.org/1999/02/22-rdf-syntax-ns#">
      <rdf:Description rdf:about=""/>
   </rdf:RDF>
</x:xmpmeta>
                                                                                                    
                                                                                                    
                                                                                                    
                                                                                                    
                                                                                                    
                                                                                                    
                                                                                                    
                                                                                                    
                                                                                                    
                                                                                                    
                                                                                                    
                                                                                                    
                                                                                                    
                                                                                                    
                                                                                                    
                                                                                                    
                                                                                                    
                                                                                                    
                                                                                                    
                                                                                                    
                           
<?xpacket end="w"?></metadata>
<defs>
    <style>
      .cls-1 {
        fill: #ffc800;
        fill-rule: evenodd;
      }
    </style>
  </defs>
  <path class="cls-1" d="M877.558,41H862.446A2.431,2.431,0,0,0,860,43.41V53.59A2.431,2.431,0,0,0,862.446,56h15.108A2.431,2.431,0,0,0,880,53.59V43.414A2.428,2.428,0,0,0,877.558,41Zm1.329,12.59a1.321,1.321,0,0,1-1.329,1.309H862.446a1.321,1.321,0,0,1-1.329-1.309V43.414a1.321,1.321,0,0,1,1.329-1.309h15.108a1.32,1.32,0,0,1,1.328,1.309V53.59h0Zm-6.274-5.216,4.891-4.323a0.547,0.547,0,0,0,.042-0.779,0.568,0.568,0,0,0-.791-0.041L870.01,49.2l-1.316-1.158a0.022,0.022,0,0,1-.008-0.012,0.835,0.835,0,0,0-.091-0.078l-5.355-4.723a0.563,0.563,0,0,0-.79.045,0.545,0.545,0,0,0,.045.779l4.95,4.36-4.929,4.547a0.548,0.548,0,0,0-.025.779,0.577,0.577,0,0,0,.41.175,0.567,0.567,0,0,0,.381-0.147l5-4.612,1.357,1.195a0.564,0.564,0,0,0,.745,0l1.394-1.232,4.974,4.657a0.567,0.567,0,0,0,.791-0.02,0.547,0.547,0,0,0-.021-0.779Z" transform="translate(-860 -41)"/>
</svg>
